<?xml version="1.0" standalone="no"?>
<!DOCTYPE svg PUBLIC "-//W3C//DTD SVG 20010904//EN"
 "http://www.w3.org/TR/2001/REC-SVG-20010904/DTD/svg10.dtd">
<svg version="1.0" xmlns="http://www.w3.org/2000/svg"
 width="700.000000pt" height="700.000000pt" viewBox="0 0 700.000000 700.000000"
 preserveAspectRatio="xMidYMid meet">
<metadata>
Created by potrace 1.11, written by Peter Selinger 2001-2013
</metadata>
<g transform="translate(0.000000,700.000000) scale(0.100000,-0.100000)"
fill="#000000" stroke="none">
<path d="M635 6983 c-142 -30 -282 -104 -390 -205 -52 -48 -163 -201 -169
-230 -1 -7 -10 -30 -19 -51 -19 -44 -37 -105 -46 -157 -8 -49 -8 -5635 1
-5688 4 -23 9 -46 12 -50 3 -5 7 -20 10 -34 2 -14 16 -51 30 -82 14 -31 26
-59 26 -62 0 -3 19 -33 42 -67 88 -131 241 -253 383 -305 146 -54 -10 -51
2990 -51 2946 0 2825 -2 2959 43 227 77 415 266 493 494 45 133 43 24 40 3005
l-2 2812 -27 78 c-81 232 -209 382 -414 485 -33 17 -85 38 -116 46 -30 9 -66
20 -79 24 -13 4 -1291 8 -2839 9 -2468 1 -2824 0 -2885 -14z"/>
</g>
</svg>
